<svg xmlns="http://www.w3.org/2000/svg" width="32" height="32" viewBox="0 0 32 32"><defs><linearGradient id="solg" x1="6" y1="23" x2="25" y2="9" gradientUnits="userSpaceOnUse"><stop offset="0" stop-color="#9945FF"/><stop offset="1" stop-color="#14F195"/></linearGradient></defs><circle cx="16" cy="16" r="16" fill="#131722"/><g fill="url(#solg)"><path d="M9.93 19.69a.59.59 0 0 1 .41-.17h14.37a.29.29 0 0 1 .2.5l-2.83 2.81a.59.59 0 0 1-.42.17H7.29a.29.29 0 0 1-.2-.5l2.84-2.81z"/><path d="M9.93 9.17A.59.59 0 0 1 10.34 9h14.37c.26 0 .39.31.2.5l-2.83 2.81a.59.59 0 0 1-.42.17H7.29a.29.29 0 0 1-.2-.5l2.84-2.81z"/><path d="M22.07 14.4a.59.59 0 0 0-.42-.17H7.29a.29.29 0 0 0-.2.5l2.84 2.81c.11.11.26.17.41.17h14.37a.29.29 0 0 0 .2-.5l-2.84-2.81z"/></g></svg>
